<svg xmlns="http://www.w3.org/2000/svg" viewBox="0 0 108 18" fill="none" role="img" aria-label="JumpCloud">
  <g clip-path="url(#jumpcloud-brand-logo-clip)">
    <path fill-rule="evenodd" clip-rule="evenodd" d="M30.3999 13.9705C31.2038 13.1721 31.6553 12.0891 31.6553 10.9599C31.6551 9.63508 31.0344 8.3858 29.9758 7.5801C28.9172 6.77437 27.5415 6.50402 26.2538 6.84865C26.201 5.4475 25.4967 4.15001 24.3473 3.33624C23.1979 2.52246 21.7334 2.28448 20.3831 2.69203C19.1916 0.719822 16.8983 -0.317073 14.6188 0.0857032C12.3393 0.488501 10.5466 2.24736 10.1129 4.50669C10.0102 4.49939 9.90675 4.49434 9.80197 4.49434C8.11453 4.49436 6.58412 5.47816 5.89267 7.00737C4.28906 6.36919 2.45655 6.74979 1.24459 7.9727C0.0326541 9.1956 -0.32181 11.0218 0.345548 12.6047C1.01291 14.1876 2.5716 15.2176 4.29908 15.2176C4.30909 15.2176 4.31901 15.2172 4.32895 15.217H4.3291C4.33685 15.2166 4.34462 15.2163 4.35244 15.2163L4.35199 15.2176H5.479C5.73238 14.1262 6.93033 13.2123 8.57354 12.7709C7.659 11.8727 7.38095 10.5149 7.86964 9.3332C8.35835 8.15154 9.51703 7.38004 10.803 7.38004C12.089 7.38004 13.2476 8.15154 13.7363 9.3332C14.225 10.5149 13.947 11.8727 13.0325 12.7709C13.5787 12.9128 14.1037 13.1265 14.5933 13.4062C15.3682 12.7445 16.29 12.2744 17.2831 12.0343C16.2106 10.9812 15.8846 9.38881 16.4577 8.00308C17.0308 6.61735 18.3894 5.71263 19.8976 5.71263C21.4056 5.71263 22.7643 6.61735 23.3374 8.00308C23.9103 9.38881 23.5844 10.9812 22.5118 12.0343C24.5944 12.594 26.0661 13.8005 26.1894 15.2176H27.3164L27.316 15.2163C27.319 15.2163 27.322 15.2163 27.325 15.2166C27.3298 15.2166 27.3345 15.2168 27.339 15.217H27.3392C27.3493 15.2172 27.3592 15.2176 27.3693 15.2176C28.506 15.2176 29.5962 14.7691 30.3999 13.9705ZM37.5901 7.52715V14.7787C37.5901 16.6485 36.8375 17.8353 34.7914 17.8353C34.5502 17.8306 34.3095 17.8089 34.0714 17.7705L34.1695 15.868C34.3422 15.9004 34.5176 15.9168 34.6935 15.9168C35.2008 15.9168 35.3645 15.5751 35.3645 15.0714V7.52715H37.5901ZM44.2024 15.2176H46.3793V7.51089H44.1372V11.8032C44.1372 12.7789 43.5477 13.4453 42.5987 13.4453C41.7804 13.4453 41.4203 12.9089 41.4203 12.1121V7.51089H39.1943V12.73C39.1943 14.4047 39.9473 15.4452 41.4203 15.4452C42.6476 15.4452 43.5971 14.6649 44.0386 13.1689H44.2024V15.2176ZM51.7315 9.29934C50.7824 9.29934 50.1767 9.96609 50.1767 10.9253V15.2176H47.9506V7.51091H50.1275V9.57581H50.2911C50.7332 8.07986 51.6662 7.29954 52.8935 7.29954C54.2684 7.29954 54.9392 8.1612 55.0375 9.60828H55.2175C55.6431 8.09631 56.5266 7.29954 57.8038 7.29954C59.3256 7.29954 60.0947 8.3239 60.0947 9.99854V15.2176H57.8526V10.6164C57.8526 9.83586 57.4927 9.29934 56.6744 9.29934C55.7249 9.29934 55.1357 9.96609 55.1357 10.9253V15.2176H52.9101V10.6164C52.9101 9.83586 52.5332 9.29934 51.7315 9.29934ZM69.1628 11.3805C69.1628 8.73039 68.1968 7.29954 66.4947 7.29954C65.2508 7.29954 64.3999 8.11252 63.9908 9.46203H63.8437V7.51091H61.6177V17.6891H63.8437V13.2016H63.9743C64.3672 14.5511 65.2021 15.4452 66.4947 15.4452C68.1642 15.4452 69.1628 14.0309 69.1628 11.3805ZM63.8437 11.7056C63.8437 12.7789 64.4656 13.494 65.4147 13.494C66.4949 13.494 66.9695 12.7951 66.9695 11.3805C66.9695 9.96609 66.4949 9.29936 65.4312 9.29936C64.449 9.29936 63.8437 9.99854 63.8437 11.104V11.7056ZM75.4641 10.6488L77.5265 10.2586C77.2482 8.38881 76.2665 7.29954 73.9585 7.29954C71.4872 7.29954 69.9816 8.84417 69.9816 11.4618C69.9816 14.0957 71.5201 15.4452 73.975 15.4452C76.1845 15.4452 77.2813 14.3233 77.543 12.5348L75.4972 12.0472C75.3335 12.8438 74.9567 13.5106 73.9585 13.5106C72.8131 13.5106 72.2566 12.7137 72.2566 11.348C72.2566 9.88474 72.8949 9.23445 73.9258 9.23445C74.908 9.23445 75.2678 9.81963 75.4641 10.6488ZM78.82 4.77949H81.046V15.2176H78.82V4.77949ZM86.2833 15.4452C88.7546 15.4452 90.2602 13.9005 90.2602 11.3643C90.2602 8.7953 88.7054 7.29954 86.2833 7.29954C83.8121 7.29954 82.2734 8.7953 82.2734 11.3643C82.2734 13.9005 83.7629 15.4452 86.2833 15.4452ZM88.0346 11.348C88.0346 9.94967 87.4946 9.15311 86.2668 9.15311C85.0394 9.15313 84.4994 9.94967 84.4994 11.348C84.4994 12.7462 85.0068 13.5591 86.2668 13.5591C87.5107 13.5591 88.0346 12.7462 88.0346 11.348ZM96.4309 15.2176H98.6075V7.51089H96.3654V11.8032C96.3654 12.7789 95.7762 13.4453 94.8271 13.4453C94.0088 13.4453 93.6485 12.9089 93.6485 12.1121V7.51089H91.4225V12.73C91.4225 14.4047 92.1755 15.4452 93.6485 15.4452C94.8759 15.4452 95.8254 14.6649 96.267 13.1689H96.4309V15.2176ZM107.348 15.2176H105.122V13.2016H104.991C104.598 14.5511 103.747 15.4452 102.454 15.4452C100.785 15.4452 99.8031 14.0309 99.8031 11.4294C99.8031 8.74664 100.785 7.29956 102.487 7.29956C103.731 7.29956 104.566 8.11254 104.975 9.46205H105.122V4.77949H107.348V15.2176ZM103.551 13.494C102.454 13.494 101.98 12.8113 101.98 11.4294C101.98 9.98231 102.471 9.29934 103.535 9.29934C104.516 9.29934 105.122 10.0147 105.122 11.1367V11.7383C105.122 12.8113 104.484 13.494 103.551 13.494ZM35.2773 5.35617C35.2773 6.01458 35.8145 6.54833 36.4774 6.54833C37.1402 6.54833 37.6775 6.01458 37.6775 5.35617C37.6775 5.04 37.551 4.73676 37.326 4.5132C37.1009 4.28963 36.7956 4.16401 36.4774 4.16401C35.8145 4.16401 35.2773 4.69777 35.2773 5.35617Z" fill="#0F202F"/>
  </g>
  <defs>
    <clipPath id="jumpcloud-brand-logo-clip">
      <rect width="107.361" height="17.822" fill="white"/>
    </clipPath>
  </defs>
</svg>
